<?xml version="1.0" encoding="utf-8"?>
<!-- Generator: Adobe Illustrator 26.5.0, SVG Export Plug-In . SVG Version: 6.00 Build 0)  -->
<svg version="1.1" id="Layer_1" xmlns="http://www.w3.org/2000/svg" xmlns:xlink="http://www.w3.org/1999/xlink" x="0px" y="0px"
	 viewBox="0 0 252.6 88.6" style="enable-background:new 0 0 252.6 88.6;" xml:space="preserve">
<style type="text/css">
	.st0{fill-rule:evenodd;clip-rule:evenodd;fill:#FFFFFF;}
	.st1{fill:#FFFFFF;}
</style>
<g>
	<g>
		<g>
			<g>
				<g>
					<g>
						<path class="st0" d="M214.1,71c0.1,0,0.2,0.1,0.1,0.3c-0.9,1.2-2.3,2.5-4.2,3.8c-1.9,1.3-4,2.6-6.3,3.7
							c-2.4,1.1-4.5,2.1-6.8,2.7c-2.5,0.6-4.7,0.9-6.5,0.7c-1.5-0.2-2.7-0.6-3.6-1.3c0,0-0.1-0.1-0.1-0.2c0-0.1,0.1-0.2,0.2-0.2
							c5.6-0.9,10.7-2.3,15.5-4C207.3,74.8,211.2,72.9,214.1,71"/>
						<path class="st0" d="M213.7,68.3c-3,1.8-9.2,4.5-14.7,6c-6.5,1.9-11.6,2.8-15.1,2.3c-3.1-0.4-4.6-1.8-5-2.4
							c-0.1-0.1-0.1-0.1-0.1-0.2c0-0.1,0.1-0.2,0.2-0.2l1.2-0.1c2.6-0.2,7.2-0.3,12.6-1.1c6.2-0.9,16.2-2.7,20.8-4.5
							C213.7,68,213.7,68.1,213.7,68.3"/>
						<path class="st0" d="M213.2,76.2c0.1,0,0.2,0.1,0.1,0.2c-1.1,2.7-2.4,4.7-4.9,6c-4.4,2.2-6.7,1-7,0.8c-0.1,0-0.1-0.1-0.1-0.2
							c0-0.1,0.1-0.2,0.2-0.2c1.9-0.6,7.7-2.7,11.6-6.6C213.1,76.2,213.1,76.2,213.2,76.2"/>
						<path class="st0" d="M242.1,34.8c0.1,0,0.1,0.1,0.1,0.2c0,0.1-0.1,0.1-0.2,0.1c-1.3-0.4-4.1-1.1-7.6-2.1
							c-8.1-2.2-38.6-10.2-39.1-10.3l-0.1,0c-1.8-0.6-3.3-1.5-4.5-2.7c-0.3-0.3-0.7-0.7-0.9-1.2c-1-1.5-1.3-3.8-1.3-4.2
							c0,0,0-0.1,0.1-0.2c0.1-0.1,0.1-0.1,0.3-0.1l5,1.9C205.6,20.8,237,32.8,242.1,34.8"/>
						<path class="st0" d="M237,30c0,0.2,0,0.3-0.2,0.2c-1.8-0.9-5.9-2.8-9.9-4.8c-3.4-1.7-27-12.6-28.6-13.4l-2.8-1.4
							c-0.4-0.2-0.8-0.4-1.2-0.7c-1.1-0.7-1.7-1.2-2.3-1.9c-0.5-0.6-0.9-1.4-1.2-2.2c-0.7-1.7-0.6-3.9-0.6-4.3c0-0.1,0-0.1,0.1-0.2
							c0.1,0,0.1,0,0.3,0l2.9,1.8l1.6,1l8.6,5.2C215.7,16.8,232.6,27.3,237,30"/>
						<path class="st0" d="M245.7,38.1c0.1,0,0.1,0.1,0.1,0.2c0,0.1-0.1,0.1-0.2,0.1c-4.6-0.3-46.4-3-46.4-3c-0.4,0-0.7-0.1-1.1-0.2
							c-3.3-1-5.3-3.6-6-6.1c0-0.1,0-0.2,0-0.3c0.1-0.1,0.2-0.1,0.3-0.1C192.3,28.6,241.6,37.3,245.7,38.1"/>
						<path class="st0" d="M243.6,40.8c0.1,0,0.2,0.1,0.2,0.2c0,0.1-0.1,0.1-0.2,0.1c-1.7,0.3-33.5,4.7-33.7,4.7
							c-0.2,0-0.4,0.1-0.6,0.1c-0.2,0-0.4,0-0.5,0c-1.5-0.2-3-0.9-4.3-2.3c-0.7-0.7-1.3-1.8-1.4-2.3c0-0.1,0-0.1,0-0.2
							c0.1-0.1,0.1-0.1,0.2-0.1c0,0,10.6-0.1,17.4-0.1c5,0,10.4,0,14.7,0C239.1,40.9,242.1,40.9,243.6,40.8"/>
						<path class="st0" d="M241.2,44.1c0.1,0,0.2,0,0.2,0c0,0,0.1,0.1-0.1,0.2c-1,0.7-23.8,10.1-24,10.2c-1.2,0.4-2.7,0.7-3.7-1
							c-0.4-0.7-0.8-1.3-1-1.6c-0.1-0.1-0.3-0.4,0.3-0.5c0,0,6.4-1.7,12.1-3.2C231.8,46.6,239.3,44.7,241.2,44.1"/>
						<path class="st0" d="M231.2,59.8c0.1,0,0.2,0.1,0.1,0.3c-2.2,2.5-10.3,11.5-14,15.4c-0.4,0.4-0.6,0.2-0.4-0.2
							c0,0,0.7-1.7,1-3.1c0.2-0.8,0.4-1.5,0.8-1.8c4.8-4,9.3-8,12.4-10.5L231.2,59.8z"/>
						<path class="st0" d="M238.7,48.5c0.1,0,0.2,0.1,0.1,0.3c-2.2,1.9-12.4,10.4-17.9,14.9l-0.2,0.1c-1.6,1.2-2.7,1.5-2.9-1.1
							c-0.1-0.6-0.1-1.2-0.1-1.2c-0.1-0.5,0.1-0.5,0.3-0.7c1.8-1.1,5.2-3,7.9-4.7C230.8,53.3,236.5,49.8,238.7,48.5"/>
					</g>
				</g>
			</g>
		</g>
	</g>
	<path class="st1" d="M31.2,41l-10-2.7c-2.8-0.7-5.3-1.9-5.3-5.3c0-3.5,2.1-5.2,6.6-5.2h8.9c4,0,8.6-1.3,8.7-7.7l-16.8,0
		C12.9,20.1,7,25.3,7,32.7c0,6.9,4.4,10.8,12.3,12.9l8.7,2.3c3.6,1,4.9,3.2,4.9,5.5c0,3.5-2.2,5.6-7.7,5.6L8.5,59.3v7.5h17
		c10.4,0,16.3-5.5,16.3-12.8C41.9,46.7,39,43.1,31.2,41z M113.5,20.1c-10.2,0-17.2,5.8-17.2,17.9v28.9h8.2V37.7
		c0-6.2,3.3-9.9,9.7-9.9h2.4c7.2,0,8.4-3.7,8.4-7.7H113.5z M77,20.1l0,32.4c0,4.7-3.9,7.1-9.1,7.1c-5.5,0-9-2.4-9-7.1l-0.1-24.2
		c0-6.9-4.4-8.2-8.2-8.2v34.4c0,8.7,7.9,12.9,17,12.9c8.9,0,17.6-4.3,17.6-12.9l0-25.2C85.3,22.5,82.7,20.1,77,20.1z M148.6,20.1
		L148.6,20.1l-2.1,0c-10.9,0-21.2,8-21.6,23.6c-0.4,14.2,7,24.1,19.6,24.1c10.3,0,13.9-7.1,13.9-7.1c0.6,4.8,3.2,6.2,8.4,6.2V26.7h0
		v-6.7H148.6z M158,47.6c0,6.5-3.7,12.6-11.8,12.6c-7.2,0-12.4-4.8-12.1-16.5c0.3-11.2,5.7-16.1,12.9-16.1c0.6,0,1.1,0,1.6-0.1v0
		h9.5V47.6z"/>
</g>
</svg>
